<?xml version="1.0" standalone="no"?>
<!DOCTYPE svg PUBLIC "-//W3C//DTD SVG 20010904//EN"
 "http://www.w3.org/TR/2001/REC-SVG-20010904/DTD/svg10.dtd">
<svg version="1.0" xmlns="http://www.w3.org/2000/svg"
 width="275.000000pt" height="183.000000pt" viewBox="0 0 275.000000 183.000000"
 preserveAspectRatio="xMidYMid meet">

<g transform="translate(0.000000,183.000000) scale(0.100000,-0.100000)"
fill="#000000" stroke="none">
<path d="M0 1780 c0 -27 2 -50 4 -50 3 0 28 23 56 50 l51 50 -55 0 -56 0 0
-50z"/>
<path d="M390 1720 c0 -69 4 -111 11 -116 6 -3 7 -9 3 -13 -5 -3 -7 -96 -4
-206 3 -130 8 -190 13 -170 16 58 17 59 29 47 15 -15 38 -4 32 16 -3 9 3 4 12
-13 l18 -30 14 48 14 49 20 -22 c29 -31 46 -172 30 -248 -6 -31 -11 -57 -9
-58 1 -1 13 0 27 3 l25 4 1 251 c1 175 5 253 13 261 7 7 26 17 44 23 28 9 32
16 35 50 2 21 8 43 13 49 5 5 9 17 9 26 0 12 6 16 23 13 13 -3 7 4 -18 18
l-40 23 85 6 c47 4 106 7 133 8 44 1 47 -1 47 -24 0 -29 -8 -31 -36 -10 -22
17 -44 19 -44 5 0 -5 5 -10 11 -10 6 0 24 -9 40 -21 27 -19 29 -24 29 -92 0
-63 -3 -74 -21 -85 -12 -8 -18 -9 -14 -3 3 6 1 11 -4 11 -6 0 -11 7 -11 15 0
19 -14 19 -34 -1 -20 -19 -21 -45 -2 -38 8 3 16 -4 20 -20 3 -14 12 -23 19
-21 12 5 41 -44 32 -53 -3 -3 -5 0 -5 6 0 7 -4 12 -10 12 -11 0 -12 -46 -1
-73 4 -10 11 -18 16 -18 6 1 11 -40 12 -94 1 -93 1 -95 -21 -95 -37 0 -86 -21
-96 -40 -25 -46 -7 -70 50 -70 15 0 33 -7 40 -15 12 -14 15 -14 30 0 20 18 34
6 24 -19 -3 -9 -1 -16 5 -16 6 0 11 16 11 35 0 34 2 35 38 36 23 1 28 3 15 6
-13 2 -23 10 -23 16 0 7 -4 6 -10 -3 -7 -11 -10 -7 -10 17 0 17 4 34 10 38 15
9 80 -23 80 -39 0 -12 11 -16 45 -16 l45 0 0 -70 0 -70 -35 0 c-33 0 -34 -1
-23 -20 13 -21 38 -27 38 -10 0 6 5 10 10 10 6 0 10 -22 10 -50 0 -40 -3 -48
-15 -44 -8 4 -15 2 -15 -4 0 -9 100 -25 109 -17 2 3 -5 5 -17 5 -18 0 -22 6
-22 30 0 23 4 30 20 30 22 0 27 -15 8 -23 -7 -3 2 -6 20 -8 17 -1 38 -2 45 -3
6 -1 12 6 12 14 0 19 47 21 51 2 1 -7 0 -8 -3 -2 -2 5 -9 7 -14 4 -6 -4 -5
-14 3 -27 17 -26 22 -77 8 -77 -6 0 -10 -13 -10 -30 0 -17 -5 -30 -12 -30 -9
0 -8 -3 2 -10 16 -10 15 -12 -14 -27 -16 -9 -9 -12 39 -14 38 -3 63 0 71 9 8
8 47 12 111 13 54 1 127 5 163 9 l65 7 -52 1 c-51 2 -52 3 -57 35 -2 17 -4 41
-4 52 0 11 -3 36 -7 55 -3 19 -8 55 -10 80 -5 43 -4 43 5 13 10 -33 18 -37 54
-33 12 1 16 -2 11 -11 -6 -8 -4 -10 6 -3 8 4 32 11 54 15 39 6 38 7 -15 8
-109 3 -135 30 -32 33 l57 1 -60 7 c-33 4 -52 7 -43 8 9 1 19 10 21 20 4 16 5
16 6 0 0 -10 6 -18 11 -18 6 0 10 21 11 48 0 35 2 42 8 27 5 -11 7 -32 6 -46
-3 -23 1 -25 36 -26 30 -1 39 3 39 16 0 13 2 14 9 2 7 -11 11 -4 17 25 6 32 8
35 15 19 7 -19 8 -19 8 3 1 25 13 28 31 7 7 -8 17 -12 22 -9 5 3 12 -4 15 -16
l6 -22 13 23 c7 13 13 18 14 12 0 -7 4 -13 10 -13 5 0 0 19 -10 43 -26 56 -25
87 5 131 l25 37 -22 8 c-16 6 -18 10 -9 16 7 4 16 3 20 -3 7 -11 24 -15 59
-13 19 1 21 5 16 27 -5 19 -4 25 5 20 6 -4 11 -3 11 3 0 5 12 8 28 7 15 -2 33
-4 40 -5 6 0 12 -13 13 -28 0 -25 1 -26 9 -8 5 11 11 29 15 40 5 16 8 17 15 5
7 -11 10 -11 10 -2 0 7 -7 15 -16 19 -14 5 -15 21 -9 122 4 64 9 118 11 120 2
2 4 -7 4 -22 0 -14 4 -28 9 -31 15 -9 20 5 11 30 -5 13 -6 26 0 29 4 3 10 -1
12 -10 2 -10 7 -12 18 -5 13 9 13 12 -2 24 -10 7 -18 24 -18 37 1 23 1 23 15
5 14 -19 15 -18 16 10 1 16 1 32 0 36 0 4 11 29 24 56 14 28 25 57 25 65 0 18
-33 33 -38 17 -2 -6 -11 -18 -20 -26 -14 -15 -17 -12 -28 27 -9 29 -10 47 -3
54 5 5 46 12 89 14 68 3 80 1 80 -13 0 -9 7 -16 15 -16 20 0 19 26 -1 34 -9 4
-473 6 -1030 6 l-1014 -1 0 -109z m1268 84 c33 -9 28 -34 -8 -34 -32 0 -36 -6
-20 -30 6 -10 10 -11 10 -2 0 7 13 12 30 12 29 0 30 -2 30 -45 l0 -45 -40 0
c-33 0 -42 4 -50 23 -5 12 -9 16 -9 9 -1 -7 -5 -10 -11 -7 -14 9 -13 48 2 63
9 9 9 12 -3 12 -19 0 -40 -49 -33 -77 10 -37 -11 -26 -25 13 -10 28 -17 35
-32 31 -12 -3 -19 0 -19 9 0 18 66 19 73 2 3 -7 6 -5 6 6 1 10 -7 25 -16 32
-16 12 -16 15 -3 24 17 11 83 13 118 4z m-688 -29 c0 -13 -11 -15 -57 -13 -81
4 -85 28 -4 28 48 0 61 -3 61 -15z m30 -5 c0 -5 -4 -10 -10 -10 -5 0 -10 5
-10 10 0 6 5 10 10 10 6 0 10 -4 10 -10z m126 -15 c4 -10 20 -15 45 -15 30 0
37 -3 33 -15 -4 -8 -14 -15 -23 -16 -11 0 -10 -3 7 -11 13 -6 21 -19 20 -27
-3 -13 -25 -18 -111 -25 -103 -9 -137 -4 -108 13 9 6 10 11 2 15 -17 11 -14
66 4 66 11 0 15 -11 15 -39 0 -37 2 -40 27 -38 14 1 28 8 31 16 3 9 -2 11 -17
6 -18 -5 -21 -2 -21 24 0 24 4 31 19 31 10 0 21 7 25 15 3 8 15 15 26 15 11 0
23 -7 26 -15z m737 -10 c-3 -9 -8 -14 -10 -11 -3 3 -2 9 2 15 9 16 15 13 8 -4z
m-413 -50 c0 -31 -5 -55 -10 -55 -6 0 -8 11 -4 25 4 14 1 32 -6 40 -13 16 -7
45 10 45 6 0 10 -24 10 -55z m-210 35 c0 -5 -2 -10 -4 -10 -3 0 -8 5 -11 10
-3 6 -1 10 4 10 6 0 11 -4 11 -10z m58 3 c-9 -2 -20 -13 -23 -24 -8 -23 -25
-25 -25 -3 0 8 4 13 9 10 5 -3 11 1 15 9 3 8 13 14 23 14 16 -1 16 -2 1 -6z
m721 -29 c7 -17 7 -24 0 -24 -6 0 -9 -7 -5 -15 4 -11 -1 -15 -19 -15 -29 0
-33 14 -7 29 16 10 16 12 0 25 -24 18 -23 35 1 29 10 -2 24 -16 30 -29z m-106
8 c7 20 21 1 23 -32 2 -29 0 -30 -37 -30 -33 0 -39 3 -39 20 0 28 22 51 37 39
7 -7 13 -5 16 3z m-173 -22 c0 -5 -7 -10 -16 -10 -8 0 -12 5 -9 10 3 6 10 10
16 10 5 0 9 -4 9 -10z m-513 -42 c-3 -8 -6 -5 -6 6 -1 11 2 17 5 13 3 -3 4
-12 1 -19z m706 -15 c-7 -2 -19 -2 -25 0 -7 3 -2 5 12 5 14 0 19 -2 13 -5z
m122 -13 c-5 -14 -2 -20 9 -20 9 0 16 -5 16 -10 0 -7 -7 -7 -20 0 -16 9 -22 8
-26 -5 -3 -8 -10 -12 -15 -9 -5 3 -9 0 -9 -5 0 -6 5 -11 10 -11 6 0 8 -10 5
-23 -5 -17 -2 -24 9 -24 11 0 13 8 9 29 -4 18 -1 28 6 28 7 0 9 -5 5 -11 -5
-8 -1 -8 14 0 15 8 23 8 28 0 4 -7 14 -3 28 13 11 13 31 23 43 22 22 -1 38 20
27 37 -3 5 0 9 5 9 12 0 15 -140 5 -202 l-7 -38 -58 0 c-47 0 -59 3 -59 16 0
27 -58 77 -84 72 -21 -4 -23 -2 -22 42 1 53 21 87 41 70 10 -8 15 -8 21 1 4 8
3 9 -4 5 -16 -9 -15 1 1 19 18 21 29 18 22 -5z m-1535 -10 c0 -19 -8 -23 -72
-33 -19 -3 -28 0 -28 9 0 8 7 14 15 14 8 0 15 7 15 15 0 10 11 15 35 15 28 0
35 -4 35 -20z m587 -1 l103 2 0 -36 c0 -44 -17 -78 -35 -71 -17 6 -28 -9 -45
-61 -7 -24 -17 -43 -21 -43 -5 0 -4 12 1 26 13 33 13 54 -1 54 -6 0 -9 -7 -5
-15 3 -8 1 -14 -4 -12 -6 1 -16 -9 -23 -23 -14 -28 -57 -41 -57 -17 0 10 7 13
20 10 15 -4 20 0 20 15 0 12 -5 24 -10 27 -6 4 -8 11 -4 16 4 6 11 6 20 -2 11
-9 14 -8 14 5 0 18 -13 25 -56 30 -16 2 -32 4 -36 5 -5 0 -8 24 -8 52 0 36 3
48 12 43 6 -4 58 -6 115 -5z m1000 -4 c0 -8 -4 -12 -9 -9 -4 3 -8 9 -8 15 0 5
4 9 8 9 5 0 9 -7 9 -15z m-410 -62 c-4 -38 -7 -85 -7 -105 l0 -38 -46 0 -47 0
7 49 c4 31 3 52 -4 56 -6 4 -8 14 -6 23 3 10 1 24 -4 32 -9 13 -11 13 -20 0
-6 -8 -8 -23 -6 -32 2 -10 0 -21 -5 -24 -5 -3 -9 -20 -9 -38 0 -39 -8 -50 -27
-34 -11 9 -13 8 -11 -2 2 -8 -5 -16 -14 -18 -16 -3 -18 7 -18 97 l0 101 111 0
112 0 -6 -67z m142 39 c9 -14 10 -15 11 -1 0 18 29 21 49 5 11 -8 13 -8 7 2
-4 6 -2 12 4 12 6 0 13 -8 16 -17 3 -10 9 -25 14 -34 5 -9 6 -27 3 -40 -9 -40
-47 -109 -60 -109 -15 0 -17 16 -3 25 6 3 10 15 10 26 0 20 -11 23 -85 19 -50
-2 -52 -4 -38 -39 10 -28 10 -29 -24 -28 -33 1 -34 3 -29 30 3 16 6 40 6 53 0
17 4 22 15 18 10 -4 15 0 15 11 0 11 5 15 15 11 8 -3 15 -1 15 4 0 13 -27 13
-35 0 -11 -18 -25 0 -25 33 0 32 0 32 55 34 43 2 56 -1 64 -15z m-612 -34 c-3
-8 -6 -5 -6 6 -1 11 2 17 5 13 3 -3 4 -12 1 -19z m-727 0 c0 -4 -12 -8 -27 -8
-19 0 -24 3 -15 8 17 11 42 11 42 0z m30 -22 c0 -3 -4 -8 -10 -11 -5 -3 -10
-1 -10 4 0 6 5 11 10 11 6 0 10 -2 10 -4z m697 -18 c-3 -8 -6 -5 -6 6 -1 11 2
17 5 13 3 -3 4 -12 1 -19z m41 -48 c2 -39 -10 -54 -22 -25 -3 8 -1 15 5 15 6
0 8 7 5 16 -5 13 -1 34 7 34 1 0 3 -18 5 -40z m177 5 c0 -14 -3 -25 -7 -25 -5
0 -8 11 -8 25 0 14 3 25 8 25 4 0 7 -11 7 -25z m-951 -19 c-1 -9 4 -16 12 -16
8 0 14 -7 14 -15 0 -9 -9 -15 -22 -15 -17 0 -19 -3 -9 -9 8 -5 9 -11 3 -15 -5
-3 -12 1 -16 9 -3 8 -17 20 -31 27 -28 12 -31 23 -13 41 17 19 63 13 62 -7z
m818 -3 c3 -25 7 -28 47 -30 67 -3 62 -13 -7 -13 l-62 0 0 35 c0 41 17 47 22
8z m-68 -35 c7 -5 5 -8 -6 -8 -14 0 -18 8 -17 33 2 27 2 28 6 7 3 -14 10 -28
17 -32z m123 30 c-3 -8 -6 -5 -6 6 -1 11 2 17 5 13 3 -3 4 -12 1 -19z m626
-50 c31 -22 36 -61 12 -95 -8 -12 -12 -28 -9 -37 3 -9 1 -16 -6 -16 -6 0 -8
-5 -4 -12 4 -7 -12 3 -37 23 -24 20 -48 46 -54 58 -8 19 -16 22 -45 17 -20 -3
-29 -2 -22 3 11 6 10 9 -5 13 -10 3 -27 -4 -38 -15 -17 -17 -17 -19 -3 -14 10
3 20 2 23 -3 3 -5 -4 -11 -15 -15 -11 -4 -18 -10 -15 -15 3 -4 -6 -10 -20 -12
-36 -7 -52 18 -44 72 3 25 7 37 7 28 2 -21 16 -23 34 -5 8 9 39 14 81 15 53 1
69 -3 76 -16 5 -9 13 -14 17 -10 4 4 1 14 -6 23 -7 8 -10 21 -7 29 7 18 41 11
80 -16z m-793 -113 l0 -115 -110 0 -110 0 0 115 0 115 110 0 110 0 0 -115z
m209 88 c10 -10 22 -33 26 -50 6 -31 25 -56 25 -33 0 6 14 8 38 4 43 -7 68 12
59 46 -6 24 -3 25 17 4 15 -14 16 -13 16 16 0 31 0 31 50 29 l50 -3 -1 -70 c0
-39 -3 -65 -6 -58 -6 15 -29 16 -39 0 -5 -7 -3 -8 5 -4 7 5 21 0 32 -10 12
-11 19 -13 19 -5 0 7 5 9 10 6 6 -4 8 -10 5 -15 -3 -5 -1 -11 5 -15 5 -3 10
-19 10 -35 0 -19 6 -30 18 -33 14 -4 14 -6 -5 -12 -15 -5 -23 -15 -23 -29 1
-21 1 -21 15 -2 14 18 15 16 15 -26 0 -41 -2 -46 -20 -41 -16 4 -20 15 -22 52
-1 25 -1 55 0 66 3 58 -4 63 -80 57 -23 -2 -24 -47 -2 -69 12 -13 13 -17 2
-24 -17 -11 -59 -1 -78 19 -13 13 -13 14 3 9 11 -4 16 -3 12 3 -3 6 -13 10
-21 10 -14 0 -18 -11 -15 -37 3 -22 -17 -14 -37 15 -25 36 -34 82 -15 82 7 0
16 -6 19 -13 3 -8 10 -14 17 -15 7 0 22 -4 34 -7 17 -6 22 -2 26 17 2 12 5 1
6 -25 2 -67 21 -50 21 18 0 44 4 56 20 65 23 12 16 40 -11 40 -13 0 -19 -7
-19 -23 0 -22 -29 -67 -44 -67 -13 0 -5 30 12 39 9 6 12 11 5 11 -6 0 -14 -4
-17 -9 -5 -7 -40 -6 -71 4 -22 6 -29 -1 -28 -25 1 -14 -4 -2 -12 25 -12 47
-16 51 -19 25 0 -6 -7 -15 -15 -19 -9 -6 -10 -11 -2 -15 18 -11 13 -33 -9 -39
-13 -3 -20 0 -20 9 0 11 -5 10 -21 -5 -16 -14 -20 -28 -17 -51 3 -18 -1 -35
-9 -41 -17 -15 -17 -40 1 -65 13 -16 13 -21 0 -35 -18 -20 -9 -69 12 -69 8 0
14 -7 14 -16 0 -12 -6 -15 -22 -10 -13 3 -44 6 -70 6 l-48 0 0 70 c0 60 2 70
18 70 13 0 17 9 17 42 l0 43 38 -3 c20 -2 37 1 37 7 0 5 -17 11 -37 13 -43 3
-39 -11 -35 153 l2 60 70 3 c56 2 74 -1 89 -15z m751 -30 c0 -27 -7 -56 -14
-66 -13 -17 -15 -16 -30 14 -9 18 -16 47 -16 66 0 30 3 33 30 33 29 0 30 -1
30 -47z m40 4 c0 -24 -7 -52 -15 -63 -13 -18 -14 -16 -15 21 0 48 9 85 21 85
5 0 9 -19 9 -43z m-1713 -9 c-3 -7 -5 -2 -5 12 0 14 2 19 5 13 2 -7 2 -19 0
-25z m743 -73 c0 -52 -4 -95 -9 -95 -5 0 -8 8 -6 18 2 9 4 52 4 95 1 42 3 77
6 77 3 0 5 -43 5 -95z m285 -35 c19 -8 19 -9 -2 -9 -12 -1 -25 4 -28 9 -7 12
2 12 30 0z m-40 -97 c5 -17 2 -23 -9 -23 -11 0 -16 10 -16 32 0 34 13 29 25
-9z m-465 23 c0 -2 -3 -11 -6 -20 -9 -23 -24 -20 -24 4 0 11 7 20 15 20 8 0
15 -2 15 -4z m109 -9 c6 -8 8 -16 5 -19 -3 -3 -1 -9 4 -12 5 -3 17 3 27 14 26
29 45 25 45 -9 0 -31 -24 -48 -45 -31 -6 5 -15 7 -19 3 -3 -4 -13 3 -22 15 -8
12 -19 20 -24 17 -9 -6 -21 20 -13 29 11 10 30 7 42 -7z m107 -14 c-10 -10
-19 5 -10 18 6 11 8 11 12 0 2 -7 1 -15 -2 -18z m157 -26 c-9 -16 -26 12 -18
30 7 17 8 17 15 -2 4 -11 5 -24 3 -28z m-153 -8 c0 -11 -4 -17 -10 -14 -5 3
-10 13 -10 21 0 8 5 14 10 14 6 0 10 -9 10 -21z m406 -23 c3 -8 25 -27 50 -42
30 -19 44 -34 43 -48 -1 -17 -2 -18 -6 -3 -3 11 -14 17 -34 17 -18 0 -29 5
-29 14 0 15 -21 26 -51 26 -22 0 -23 4 -7 30 15 23 27 25 34 6z m-252 -47
c-11 -18 -24 -8 -24 19 1 26 1 26 15 8 8 -10 12 -23 9 -27z m163 -1 c-3 -8 -6
-5 -6 6 -1 11 2 17 5 13 3 -3 4 -12 1 -19z m50 -18 c1 -11 -2 -18 -8 -15 -11
7 -12 35 -1 35 4 0 8 -9 9 -20z m-47 -40 c0 -17 -3 -21 -9 -12 -4 7 -25 14
-47 14 -65 1 -124 9 -124 16 0 4 41 7 90 7 89 0 90 0 90 -25z m257 -2 c-3 -8
-6 -5 -6 6 -1 11 2 17 5 13 3 -3 4 -12 1 -19z m-577 -109 c0 -31 -4 -48 -10
-44 -5 3 -10 26 -10 51 0 24 5 44 10 44 6 0 10 -23 10 -51z m148 34 c2 -8 -6
-13 -22 -13 -14 0 -29 -7 -34 -16 -8 -15 -11 -15 -36 1 -19 13 -24 21 -16 30
14 17 102 14 108 -2z m-131 -15 c-3 -8 -6 -5 -6 6 -1 11 2 17 5 13 3 -3 4 -12
1 -19z m372 -28 c-18 -12 -31 2 -23 23 5 15 7 15 22 1 13 -13 13 -17 1 -24z
m-72 -17 c-4 -17 -4 -17 -12 0 -4 9 -4 25 0 35 8 16 8 16 12 0 3 -10 3 -26 0
-35z m-77 11 c0 -8 -4 -14 -10 -14 -16 0 -12 -47 5 -64 14 -14 14 -17 -5 -28
-11 -7 -20 -21 -20 -30 0 -10 -3 -18 -7 -18 -9 0 -7 44 3 127 5 38 10 50 20
46 8 -3 14 -11 14 -19z m167 -52 c20 -17 20 -18 3 -40 -15 -18 -19 -19 -24 -6
-6 17 -8 64 -3 64 2 0 13 -8 24 -18z m-78 -19 c7 -16 8 -30 3 -35 -6 -6 -14 3
-21 23 -13 38 -13 39 -3 39 5 0 14 -12 21 -27z m-26 -40 c-4 -10 -9 -11 -16
-4 -5 5 -7 18 -3 28 6 14 9 15 16 4 4 -8 6 -21 3 -28z"/>
<path d="M1622 1695 c0 -16 2 -22 5 -12 2 9 2 23 0 30 -3 6 -5 -1 -5 -18z"/>
<path d="M1110 1682 c0 -11 78 -28 87 -18 11 10 -4 17 -46 23 -25 4 -41 2 -41
-5z"/>
<path d="M2135 1560 c3 -5 8 -10 11 -10 2 0 4 5 4 10 0 6 -5 10 -11 10 -5 0
-7 -4 -4 -10z"/>
<path d="M2079 1519 c-13 -25 22 -45 51 -29 23 13 28 45 5 36 -8 -3 -15 -2
-15 3 0 15 -31 7 -41 -10z"/>
<path d="M2107 1451 c5 -21 3 -23 -13 -17 -10 4 -15 3 -10 -1 4 -4 20 -8 34
-8 21 0 27 5 27 23 0 12 -3 22 -7 22 -5 0 -8 -8 -8 -17 0 -15 -2 -14 -15 3
-13 18 -14 18 -8 -5z"/>
<path d="M475 1610 c3 -5 8 -10 11 -10 2 0 4 5 4 10 0 6 -5 10 -11 10 -5 0 -7
-4 -4 -10z"/>
<path d="M1758 1576 c-24 -18 -23 -29 2 -21 13 4 22 1 26 -9 3 -8 12 -17 20
-20 12 -5 12 -2 0 17 -8 12 -15 26 -15 32 1 15 -14 16 -33 1z"/>
<path d="M1866 1527 c3 -10 9 -15 12 -12 3 3 0 11 -7 18 -10 9 -11 8 -5 -6z"/>
<path d="M1845 1500 c-3 -5 1 -10 10 -10 9 0 13 5 10 10 -3 6 -8 10 -10 10 -2
0 -7 -4 -10 -10z"/>
<path d="M1940 1364 c0 -9 7 -14 17 -12 25 5 28 28 4 28 -12 0 -21 -6 -21 -16z"/>
<path d="M1930 1310 c0 -4 9 -10 20 -13 11 -3 20 -2 20 3 0 4 -9 10 -20 13
-11 3 -20 2 -20 -3z"/>
<path d="M1966 1255 c4 -8 8 -15 10 -15 2 0 4 7 4 15 0 8 -4 15 -10 15 -5 0
-7 -7 -4 -15z"/>
<path d="M1008 1371 c-14 -5 -15 -9 -3 -24 13 -18 14 -17 20 3 8 26 5 29 -17
21z"/>
<path d="M1060 1270 c0 -5 7 -10 15 -10 8 0 15 5 15 10 0 6 -7 10 -15 10 -8 0
-15 -4 -15 -10z"/>
<path d="M1055 1221 c-3 -5 -1 -12 5 -16 5 -3 10 1 10 9 0 18 -6 21 -15 7z"/>
<path d="M1100 1210 c0 -5 4 -10 10 -10 5 0 7 -7 4 -15 -5 -12 3 -15 35 -15
37 0 41 2 41 25 0 23 -4 25 -45 25 -25 0 -45 -4 -45 -10z"/>
<path d="M1043 1178 c18 -6 32 -7 38 -1 5 5 -6 9 -28 10 -37 0 -38 0 -10 -9z"/>
<path d="M1627 1363 c14 -3 23 -13 26 -31 4 -24 4 -24 6 6 1 29 -2 32 -26 31
-23 -1 -24 -2 -6 -6z"/>
<path d="M1310 1262 c0 -13 7 -30 15 -38 19 -20 19 -4 0 32 -14 27 -15 28 -15
6z"/>
<path d="M1270 1100 c-8 -5 -10 -10 -5 -10 6 0 17 5 25 10 8 5 11 10 5 10 -5
0 -17 -5 -25 -10z"/>
<path d="M1273 1043 c-15 -5 -18 -43 -4 -43 9 0 26 39 19 44 -1 2 -9 1 -15 -1z"/>
<path d="M2466 1817 c3 -8 36 -18 87 -24 75 -10 85 -10 115 9 17 11 32 22 32
24 0 2 -54 4 -120 4 -95 0 -118 -3 -114 -13z"/>
<path d="M2720 1815 c0 -8 7 -15 15 -15 8 0 15 7 15 15 0 8 -7 15 -15 15 -8 0
-15 -7 -15 -15z"/>
<path d="M2555 1720 c-11 -4 -31 -6 -45 -4 -32 6 -120 -49 -120 -74 0 -10 -15
-23 -40 -34 -34 -14 -40 -21 -36 -40 4 -20 15 -106 21 -162 1 -11 16 -32 32
-47 43 -38 46 -55 23 -145 -11 -43 -19 -104 -19 -134 l1 -55 24 75 c18 59 31
82 61 107 39 33 56 35 46 5 -5 -16 -5 -16 13 0 12 12 18 31 17 55 -1 28 7 46
32 75 l32 38 -15 65 c-16 64 -35 83 -47 46 -7 -23 -35 -35 -48 -22 -17 17 17
56 59 69 42 13 65 2 46 -21 -9 -10 -8 -18 3 -33 14 -19 14 -18 15 2 0 12 7 24
15 28 8 3 12 12 9 20 -4 11 0 14 15 11 17 -3 21 3 26 38 8 49 -3 81 -38 120
-27 28 -46 32 -82 17z m-38 -101 c-8 -60 -22 -70 -82 -60 -36 6 -41 9 -20 10
61 3 68 28 10 33 l-27 3 33 27 c20 17 45 28 62 28 29 0 29 -1 24 -41z m117
-35 c23 -9 20 -24 -4 -24 -11 0 -20 7 -20 15 0 17 2 18 24 9z m-267 -30 c-3
-3 -12 -4 -19 -1 -8 3 -5 6 6 6 11 1 17 -2 13 -5z m8 -82 c-5 -4 -10 -13 -10
-21 0 -8 -6 -16 -12 -18 -8 -3 -13 4 -13 15 0 19 12 30 35 31 7 0 7 -2 0 -7z"/>
<path d="M797 1664 c6 -15 23 -19 23 -5 0 5 -7 11 -14 14 -10 4 -13 1 -9 -9z"/>
<path d="M2242 1428 c-14 -14 -16 -44 -3 -52 5 -3 11 9 14 27 6 38 4 40 -11
25z"/>
<path d="M887 1406 c-4 -10 -1 -13 9 -9 15 6 19 23 5 23 -5 0 -11 -7 -14 -14z"/>
<path d="M2250 1266 c0 -17 5 -26 16 -26 10 0 14 7 12 22 -5 32 -28 35 -28 4z"/>
<path d="M2545 1270 c3 -5 8 -10 11 -10 2 0 4 5 4 10 0 6 -5 10 -11 10 -5 0
-7 -4 -4 -10z"/>
<path d="M2433 1115 c-3 -9 -3 -18 -1 -21 3 -3 8 4 11 16 6 23 -1 27 -10 5z"/>
<path d="M440 1101 c-14 -3 -27 -13 -29 -21 -2 -8 -7 -29 -11 -46 -4 -17 -27
-75 -52 -130 -53 -116 -66 -156 -67 -206 0 -37 1 -38 35 -38 29 0 34 3 30 18
-10 36 -29 143 -25 146 2 3 27 0 54 -5 130 -23 118 -24 111 7 -4 15 -16 39
-28 53 l-20 26 28 5 c24 5 26 6 11 19 -10 7 -17 20 -17 28 0 8 -4 12 -9 9 -8
-5 -21 25 -21 51 0 6 10 23 22 36 l22 25 29 -20 c26 -19 27 -21 10 -33 -10 -8
-14 -17 -9 -22 5 -4 11 -2 13 5 3 6 9 10 14 6 5 -3 9 6 9 20 0 14 -5 28 -11
31 -6 4 -8 13 -5 21 3 7 0 16 -6 20 -7 4 -8 3 -4 -4 4 -7 3 -12 -3 -12 -5 0
-13 5 -16 10 -7 11 -16 11 -55 1z"/>
<path d="M93 1037 l-93 -10 0 -113 c0 -108 1 -113 22 -120 l23 -7 -23 -8 c-21
-8 -22 -14 -21 -99 1 -93 3 -95 41 -62 15 12 17 26 12 88 -5 72 -5 73 20 80
35 8 35 38 1 32 -16 -3 -25 -1 -25 7 0 14 27 28 40 20 5 -3 12 4 15 16 8 24
-21 62 -42 55 -8 -3 -13 2 -13 14 0 12 7 20 18 20 14 0 15 2 2 10 -12 8 -11
10 8 10 12 0 30 4 40 9 17 9 45 19 60 22 14 2 32 22 32 35 0 8 -6 13 -12 12
-7 0 -55 -5 -105 -11z"/>
<path d="M2421 1035 c-11 -71 -11 -89 0 -78 5 5 9 30 6 54 -2 24 -5 35 -6 24z"/>
<path d="M1060 1020 c0 -5 5 -10 11 -10 5 0 7 5 4 10 -3 6 -8 10 -11 10 -2 0
-4 -4 -4 -10z"/>
<path d="M445 1011 c-3 -5 -1 -12 5 -16 12 -7 30 2 30 16 0 12 -27 12 -35 0z"/>
<path d="M875 990 c3 -5 10 -10 16 -10 5 0 9 5 9 10 0 6 -7 10 -16 10 -8 0
-12 -4 -9 -10z"/>
<path d="M270 975 c0 -8 9 -15 20 -15 11 0 20 7 20 15 0 8 -9 15 -20 15 -11 0
-20 -7 -20 -15z"/>
<path d="M523 951 c-15 -19 -18 -32 -12 -38 19 -19 16 -99 -4 -121 -45 -49
-30 -118 44 -199 46 -50 48 -67 14 -99 -25 -23 -34 -64 -14 -64 6 0 9 -6 6
-14 -9 -24 64 -38 78 -16 4 6 -9 10 -30 10 -25 0 -35 4 -32 13 2 6 1 19 -4 28
-4 8 -3 22 2 30 9 12 10 12 6 -1 -5 -20 39 -53 57 -43 8 4 14 13 13 18 0 9 17
16 72 31 9 3 12 15 9 36 -5 33 15 68 27 48 3 -5 3 -15 0 -20 -3 -6 -3 -30 1
-55 5 -34 11 -45 23 -44 29 3 36 -1 21 -11 -21 -15 37 -1 73 17 31 15 33 37
14 119 -8 33 -16 49 -24 47 -7 -3 -13 0 -13 6 0 6 -14 17 -30 26 -26 13 -29
20 -24 43 3 15 16 35 28 46 19 17 21 17 24 2 3 -14 6 -15 19 -4 14 11 15 10 9
-10 -5 -16 -3 -22 8 -22 8 0 18 5 22 12 4 7 3 8 -4 4 -7 -4 -13 7 -17 31 -16
95 -54 137 -135 148 -30 4 -54 13 -60 23 -8 15 -9 14 -10 -5 0 -20 -5 -23 -44
-23 -23 0 -57 5 -75 11 -32 11 -42 35 -16 41 9 2 11 8 7 16 -6 9 -14 4 -29
-17z m241 -271 c29 -11 36 -52 13 -75 -16 -15 -47 -2 -47 20 0 8 -4 15 -10 15
-11 0 -14 33 -3 43 9 9 17 9 47 -3z"/>
<path d="M737 656 c3 -14 11 -27 18 -30 10 -3 10 2 2 25 -14 35 -26 38 -20 5z"/>
<path d="M810 959 c0 -5 5 -7 12 -3 7 5 8 3 3 -7 -12 -19 -14 -49 -3 -55 5 -3
17 1 27 10 10 9 25 16 34 16 21 0 21 7 3 26 -13 12 -15 12 -18 -4 -3 -15 -6
-14 -23 6 -21 24 -35 28 -35 11z"/>
<path d="M2190 968 c0 -3 10 -27 22 -54 18 -41 22 -46 28 -29 4 12 2 24 -5 30
-7 5 -19 21 -29 35 -9 13 -16 22 -16 18z"/>
<path d="M478 953 c7 -3 16 -2 19 1 4 3 -2 6 -13 5 -11 0 -14 -3 -6 -6z"/>
<path d="M2358 929 c-24 -25 -23 -29 7 -29 20 0 25 5 25 25 0 29 -8 30 -32 4z"/>
<path d="M921 921 c-11 -7 -10 -11 7 -20 27 -14 28 -14 28 9 0 21 -12 25 -35
11z"/>
<path d="M2728 923 c7 -3 16 -2 19 1 4 3 -2 6 -13 5 -11 0 -14 -3 -6 -6z"/>
<path d="M1958 902 c-10 -2 -18 -7 -18 -11 0 -4 -10 -7 -21 -8 -28 -2 -29 -3
-31 -50 -1 -28 6 -50 21 -72 13 -18 21 -42 20 -59 -2 -15 0 -32 4 -39 4 -6 3
-14 -3 -18 -6 -4 -7 -11 -4 -17 4 -7 2 -8 -4 -4 -7 4 -14 -3 -18 -19 -3 -14
-10 -25 -15 -25 -5 0 -9 -4 -9 -10 0 -5 9 -10 20 -10 29 0 15 -24 -26 -43 -19
-9 -39 -28 -45 -41 -15 -32 -55 -40 -209 -39 l-125 1 110 -10 c61 -5 112 -12
114 -14 2 -2 -4 -13 -14 -24 -18 -20 -26 -21 -162 -14 l-143 7 0 -77 c0 -72 1
-76 23 -76 24 0 67 -25 67 -40 0 -5 -7 -7 -15 -4 -11 4 -13 2 -10 -9 5 -11 0
-14 -19 -12 -14 2 -26 0 -26 -4 0 -5 -20 -21 -45 -37 -38 -24 -45 -33 -45 -60
0 -53 8 -64 50 -64 l37 0 13 60 c8 39 18 60 27 60 10 0 12 -6 7 -22 -4 -13
-11 -25 -15 -28 -5 -4 -12 -21 -15 -38 l-7 -33 214 3 c161 3 222 7 248 18 27
12 35 12 38 2 3 -6 9 -10 14 -6 5 3 9 0 9 -6 0 -6 5 -8 11 -5 5 4 24 9 42 12
17 3 41 13 54 23 13 10 43 21 68 24 24 4 47 11 50 17 10 15 46 10 92 -12 47
-23 53 -34 23 -42 -11 -3 -20 -10 -20 -16 0 -8 73 -11 240 -11 l240 0 0 148 0
148 -44 37 c-55 46 -84 47 -186 8 -101 -39 -132 -34 -154 24 -9 23 -14 51 -10
61 4 15 4 16 -4 5 -8 -11 -13 -7 -25 21 -27 64 -28 76 -11 117 9 23 15 43 13
44 -2 2 -15 8 -29 14 l-25 12 23 0 c21 1 52 21 52 34 0 3 -10 3 -22 -1 -16 -4
-19 -2 -14 9 4 8 1 6 -7 -3 -18 -23 -28 -12 -17 18 8 19 6 24 -6 24 -13 0 -14
3 -5 14 9 11 9 16 0 21 -13 9 -29 -12 -29 -37 0 -34 -18 -18 -31 29 -15 51
-64 107 -86 99 -8 -3 -18 4 -25 20 -7 14 -17 23 -25 20 -8 -3 -16 1 -19 9 -7
18 -28 19 -54 3 -14 -9 -23 -10 -28 -3 -4 6 -15 9 -24 7z m417 -843 c9 -37
-23 -49 -47 -19 -17 21 -17 23 5 40 25 21 33 17 42 -21z m-88 25 c-3 -3 -12
-4 -19 -1 -8 3 -5 6 6 6 11 1 17 -2 13 -5z"/>
<path d="M2249 867 c-27 -59 20 -114 86 -101 31 5 36 10 31 27 -3 11 0 29 5
39 14 26 11 27 -36 19 -25 -4 -41 -12 -41 -21 -1 -8 -2 -20 -3 -27 -1 -17 -31
-4 -31 14 0 8 4 11 10 8 6 -4 7 6 3 27 -8 44 -10 45 -24 15z"/>
<path d="M2652 848 c-12 -24 -22 -49 -22 -55 0 -7 -4 -12 -9 -10 -4 1 -34 -22
-66 -50 -32 -29 -61 -53 -66 -53 -5 0 -18 9 -29 20 -11 11 -22 15 -25 10 -4
-6 0 -13 8 -16 8 -3 17 -15 20 -26 3 -11 10 -17 16 -13 7 4 8 0 4 -11 -4 -12
-3 -15 5 -10 6 4 20 -2 32 -14 22 -22 40 -26 40 -9 0 5 11 35 25 65 14 30 25
64 25 75 0 29 11 22 80 -45 33 -32 60 -53 60 -45 0 8 -14 25 -30 38 -17 13
-30 28 -30 33 0 6 8 4 17 -3 10 -8 1 7 -20 32 -42 52 -46 65 -17 49 15 -8 20
-8 20 1 0 7 11 2 25 -11 24 -22 24 -21 -6 33 -17 31 -31 57 -32 57 -1 0 -12
-19 -25 -42z"/>
<path d="M940 860 c0 -11 5 -20 12 -20 6 0 8 -3 5 -6 -4 -4 -13 -1 -22 6 -12
10 -15 10 -15 -3 0 -30 23 -31 46 -1 17 21 20 30 11 36 -21 14 -37 9 -37 -12z"/>
<path d="M1701 807 c5 -23 8 -45 9 -49 0 -5 18 -8 39 -8 30 0 44 -6 55 -22 9
-12 17 -20 19 -17 7 10 47 97 47 102 0 2 -28 5 -61 6 -34 0 -67 4 -73 9 -6 5
-18 11 -27 15 -14 4 -15 -1 -8 -36z"/>
<path d="M1810 840 c-11 -7 -7 -10 18 -10 17 0 32 5 32 10 0 13 -30 13 -50 0z"/>
<path d="M1105 810 c-3 -5 1 -10 9 -10 8 0 18 5 21 10 3 6 -1 10 -9 10 -8 0
-18 -4 -21 -10z"/>
<path d="M1052 728 c-14 -14 -16 -42 -3 -34 7 5 23 46 17 46 -1 0 -7 -5 -14
-12z"/>
<path d="M1740 730 c-9 -6 -10 -10 -3 -10 6 0 15 5 18 10 8 12 4 12 -15 0z"/>
<path d="M2372 662 c-12 -28 -22 -61 -22 -74 1 -14 11 3 26 41 30 78 27 105
-4 33z"/>
<path d="M1838 653 c7 -3 16 -2 19 1 4 3 -2 6 -13 5 -11 0 -14 -3 -6 -6z"/>
<path d="M1088 643 c7 -3 16 -2 19 1 4 3 -2 6 -13 5 -11 0 -14 -3 -6 -6z"/>
<path d="M920 610 c0 -5 5 -10 10 -10 6 0 10 5 10 10 0 6 -4 10 -10 10 -5 0
-10 -4 -10 -10z"/>
<path d="M1796 612 c-3 -3 -1 -11 5 -19 12 -14 59 -18 59 -5 0 10 -57 32 -64
24z"/>
<path d="M1012 557 c-28 -29 -52 -55 -52 -59 0 -3 22 -20 48 -36 l49 -30 19
44 c10 24 25 44 32 44 7 0 10 5 7 11 -4 6 3 21 16 35 18 19 19 24 7 24 -9 0
-24 3 -34 7 -13 5 -15 3 -10 -8 4 -8 1 -6 -7 4 -8 9 -16 17 -18 17 -2 -1 -28
-24 -57 -53z m68 18 c0 -2 -10 -9 -22 -15 -22 -11 -22 -10 -4 4 21 17 26 19
26 11z"/>
<path d="M945 580 c3 -5 8 -10 11 -10 2 0 4 5 4 10 0 6 -5 10 -11 10 -5 0 -7
-4 -4 -10z"/>
<path d="M1335 580 c3 -5 13 -10 21 -10 8 0 14 5 14 10 0 6 -9 10 -21 10 -11
0 -17 -4 -14 -10z"/>
<path d="M1218 563 c6 -2 18 -2 25 0 6 3 1 5 -13 5 -14 0 -19 -2 -12 -5z"/>
<path d="M1432 563 c-20 -4 -20 -6 -7 -19 8 -9 15 -24 15 -35 0 -17 7 -19 65
-19 71 0 75 5 48 51 -15 25 -23 29 -58 28 -22 -1 -50 -4 -63 -6z"/>
<path d="M83 408 c6 -47 -7 -75 -48 -99 l-35 -21 0 -144 0 -144 126 0 125 0
-30 37 c-41 49 -27 66 15 17 18 -22 33 -42 34 -46 0 -5 17 -8 38 -8 33 0 39 4
49 31 7 17 17 29 24 27 7 -2 36 20 65 49 40 41 55 65 64 103 10 40 16 50 33
51 21 0 21 1 -2 10 -28 11 -61 3 -61 -15 0 -21 -45 -57 -63 -50 -11 4 -17 1
-17 -9 0 -21 -26 -29 -40 -12 -6 7 -14 40 -17 72 -3 32 -10 64 -16 71 -5 7 -7
15 -3 19 3 3 6 1 6 -6 0 -7 5 -9 10 -6 6 3 10 21 9 38 0 27 -2 29 -9 12 -8
-19 -9 -19 -9 2 -1 12 6 23 17 26 9 3 -10 5 -43 6 -33 1 -70 4 -82 7 -23 6
-23 6 -25 -122 l-1 -129 -10 126 -9 127 -30 6 c-62 12 -71 9 -65 -26z"/>
<path d="M808 393 c7 -3 16 -2 19 1 4 3 -2 6 -13 5 -11 0 -14 -3 -6 -6z"/>
<path d="M865 390 c3 -5 15 -10 25 -10 10 0 22 5 25 10 4 6 -7 10 -25 10 -18
0 -29 -4 -25 -10z"/>
<path d="M1364 310 c0 -52 1 -74 3 -47 2 26 2 68 0 95 -2 26 -3 4 -3 -48z"/>
<path d="M956 375 c-16 -12 -17 -16 -3 -36 9 -11 29 -30 46 -40 17 -10 31 -27
31 -36 0 -10 17 -28 40 -41 22 -12 40 -28 40 -34 0 -9 45 -58 53 -58 2 0 4 20
5 45 1 32 -3 47 -15 53 -10 6 -14 17 -10 31 5 20 -7 27 -35 22 -5 0 -8 5 -8
12 0 7 -13 18 -30 24 -16 6 -30 7 -30 2 0 -5 5 -9 10 -9 6 0 10 -4 10 -9 0
-16 -55 8 -80 35 -27 28 -19 44 11 25 27 -16 38 -5 13 14 -23 18 -25 18 -48 0z"/>
<path d="M1174 377 c-2 -7 5 -39 16 -71 11 -33 18 -62 15 -64 -3 -3 0 -11 6
-19 6 -7 8 -13 5 -13 -4 0 -1 -7 7 -15 9 -8 17 -20 19 -27 3 -8 15 -6 44 8
l39 19 3 93 3 92 -53 1 c-29 0 -63 2 -76 5 -13 2 -25 -2 -28 -9z"/>
<path d="M2435 330 c-3 -5 -2 -10 4 -10 5 0 13 5 16 10 3 6 2 10 -4 10 -5 0
-13 -4 -16 -10z"/>
<path d="M534 292 c3 -5 20 -9 38 -10 23 -1 28 2 18 8 -19 12 -63 13 -56 2z"/>
<path d="M602 175 c-12 -14 -22 -28 -22 -31 0 -4 -8 -13 -17 -20 -16 -12 -13
-12 16 -4 38 11 35 8 50 38 7 13 22 27 34 32 20 8 19 9 -9 9 -21 1 -37 -7 -52
-24z"/>
<path d="M920 140 c-14 -10 -43 -27 -65 -36 -55 -23 -94 -39 -138 -58 -21 -9
-54 -16 -75 -17 -34 0 -35 -1 -12 -10 13 -5 47 -9 75 -7 41 2 49 6 47 21 -3
20 23 23 31 3 5 -13 25 -19 105 -33 39 -6 42 8 7 39 -14 12 -25 29 -25 37 1
12 6 10 20 -7 11 -14 24 -20 31 -16 8 4 9 3 5 -4 -5 -8 1 -11 18 -10 17 2 26
8 26 19 0 11 7 15 24 14 18 -2 23 1 19 11 -3 8 -13 13 -22 12 -12 -2 -15 3
-12 22 1 14 8 28 15 32 6 4 -2 8 -19 8 -16 0 -41 -9 -55 -20z"/>
<path d="M1200 110 c0 -5 5 -10 10 -10 6 0 10 5 10 10 0 6 -4 10 -10 10 -5 0
-10 -4 -10 -10z"/>
<path d="M950 30 c0 -3 5 -12 10 -20 9 -13 11 -13 20 0 6 10 10 11 10 3 0 -7
5 -13 11 -13 25 0 2 33 -23 34 -16 1 -28 -1 -28 -4z"/>
<path d="M424 15 c23 -17 42 -19 51 -5 3 6 32 11 63 12 l57 2 -52 3 c-29 2
-62 -1 -74 -7 -15 -9 -24 -9 -32 -1 -6 6 -16 11 -21 11 -6 0 -2 -7 8 -15z"/>
</g>
</svg>
